<svg xmlns="http://www.w3.org/2000/svg" style="display:none">
  <!-- All icons: 24x24 viewBox, stroke="currentColor", fill="none", rounded joins/caps. -->
  <defs>
    <symbol id="icon-upload" viewBox="0 0 24 24" fill="none" stroke="currentColor" stroke-width="1.75" stroke-linecap="round" stroke-linejoin="round">
      <path d="M12 16V4"/><path d="M7 9l5-5 5 5"/><path d="M4 18v1a2 2 0 002 2h12a2 2 0 002-2v-1"/>
    </symbol>
    <symbol id="icon-arrow-right" viewBox="0 0 24 24" fill="none" stroke="currentColor" stroke-width="1.75" stroke-linecap="round" stroke-linejoin="round">
      <path d="M5 12h14"/><path d="M13 6l6 6-6 6"/>
    </symbol>
    <symbol id="icon-x" viewBox="0 0 24 24" fill="none" stroke="currentColor" stroke-width="1.75" stroke-linecap="round" stroke-linejoin="round">
      <path d="M18 6L6 18"/><path d="M6 6l12 12"/>
    </symbol>
    <symbol id="icon-download" viewBox="0 0 24 24" fill="none" stroke="currentColor" stroke-width="1.75" stroke-linecap="round" stroke-linejoin="round">
      <path d="M12 4v12"/><path d="M7 11l5 5 5-5"/><path d="M4 20h16"/>
    </symbol>
    <symbol id="icon-github" viewBox="0 0 24 24" fill="currentColor">
      <path d="M12 .5C5.65.5.5 5.65.5 12.02c0 5.1 3.29 9.42 7.86 10.95.58.11.79-.25.79-.56 0-.27-.01-1.16-.02-2.1-3.2.7-3.87-1.36-3.87-1.36-.52-1.33-1.27-1.68-1.27-1.68-1.04-.71.08-.7.08-.7 1.15.08 1.76 1.18 1.76 1.18 1.02 1.76 2.69 1.25 3.35.96.1-.74.4-1.25.73-1.54-2.56-.29-5.26-1.28-5.26-5.72 0-1.26.45-2.29 1.18-3.1-.12-.29-.51-1.47.11-3.06 0 0 .97-.31 3.17 1.18.92-.26 1.9-.39 2.88-.39.98 0 1.96.13 2.88.39 2.2-1.49 3.17-1.18 3.17-1.18.62 1.59.23 2.77.11 3.06.74.81 1.18 1.84 1.18 3.1 0 4.45-2.71 5.42-5.29 5.71.41.35.77 1.05.77 2.12 0 1.53-.01 2.77-.01 3.14 0 .31.21.68.8.56 4.57-1.53 7.85-5.85 7.85-10.95C23.5 5.65 18.35.5 12 .5z"/>
    </symbol>
    <symbol id="icon-sun" viewBox="0 0 24 24" fill="none" stroke="currentColor" stroke-width="1.75" stroke-linecap="round" stroke-linejoin="round">
      <circle cx="12" cy="12" r="4"/><path d="M12 2v2M12 20v2M4.93 4.93l1.41 1.41M17.66 17.66l1.41 1.41M2 12h2M20 12h2M4.93 19.07l1.41-1.41M17.66 6.34l1.41-1.41"/>
    </symbol>
    <symbol id="icon-moon" viewBox="0 0 24 24" fill="none" stroke="currentColor" stroke-width="1.75" stroke-linecap="round" stroke-linejoin="round">
      <path d="M21 12.79A9 9 0 1111.21 3 7 7 0 0021 12.79z"/>
    </symbol>
    <symbol id="icon-chevron-right" viewBox="0 0 24 24" fill="none" stroke="currentColor" stroke-width="1.75" stroke-linecap="round" stroke-linejoin="round">
      <path d="M9 6l6 6-6 6"/>
    </symbol>
    <symbol id="icon-external" viewBox="0 0 24 24" fill="none" stroke="currentColor" stroke-width="1.75" stroke-linecap="round" stroke-linejoin="round">
      <path d="M7 17L17 7"/><path d="M8 7h9v9"/>
    </symbol>
    <symbol id="icon-spinner" viewBox="0 0 24 24" fill="none" stroke="currentColor" stroke-width="2.5" stroke-linecap="round">
      <path d="M21 12a9 9 0 11-6.22-8.56" opacity="1"/>
    </symbol>
    <symbol id="icon-info" viewBox="0 0 24 24" fill="none" stroke="currentColor" stroke-width="1.75" stroke-linecap="round" stroke-linejoin="round">
      <circle cx="12" cy="12" r="9"/><path d="M12 16v-5"/><circle cx="12" cy="8" r="0.75" fill="currentColor"/>
    </symbol>
    <symbol id="icon-book-open" viewBox="0 0 24 24" fill="none" stroke="currentColor" stroke-width="1.75" stroke-linecap="round" stroke-linejoin="round">
      <path d="M2 5.5A1.5 1.5 0 013.5 4H10a2 2 0 012 2v14a2 2 0 00-2-2H3.5A1.5 1.5 0 012 16.5v-11z"/>
      <path d="M22 5.5A1.5 1.5 0 0020.5 4H14a2 2 0 00-2 2v14a2 2 0 012-2h6.5a1.5 1.5 0 001.5-1.5v-11z"/>
    </symbol>
    <symbol id="icon-image" viewBox="0 0 24 24" fill="none" stroke="currentColor" stroke-width="1.75" stroke-linecap="round" stroke-linejoin="round">
      <rect x="3" y="3" width="18" height="18" rx="3"/><circle cx="9" cy="9" r="1.5"/><path d="M21 15l-5-5L5 21"/>
    </symbol>
    <symbol id="icon-sparkle" viewBox="0 0 24 24" fill="none" stroke="currentColor" stroke-width="1.75" stroke-linecap="round" stroke-linejoin="round">
      <path d="M12 3l1.8 4.6L18 9.3l-4.2 1.7L12 15l-1.8-4.0L6 9.3l4.2-1.7L12 3z"/>
      <path d="M19 14l.9 2 2 1-2 1-.9 2-.9-2-2-1 2-1 .9-2z"/>
    </symbol>
    <symbol id="icon-reset" viewBox="0 0 24 24" fill="none" stroke="currentColor" stroke-width="1.75" stroke-linecap="round" stroke-linejoin="round">
      <path d="M3 12a9 9 0 109-9"/><path d="M3 5v5h5"/>
    </symbol>
    <symbol id="icon-copy" viewBox="0 0 24 24" fill="none" stroke="currentColor" stroke-width="1.75" stroke-linecap="round" stroke-linejoin="round">
      <rect x="9" y="9" width="12" height="12" rx="2"/><path d="M5 15H4a2 2 0 01-2-2V4a2 2 0 012-2h9a2 2 0 012 2v1"/>
    </symbol>
  </defs>
</svg>
